<svg width="88" height="78" viewBox="0 0 88 78" fill="none" xmlns="http://www.w3.org/2000/svg">
<g clip-path="url(#clip0_39_2)">
<path d="M80.7001 11.15L76.8501 4.5C76.0501 3.1 74.9001 2 73.5501 1.2L59.8 25L87.3 25C87.3 23.45 86.9 21.9 86.1 20.5L80.7001 11.15Z" fill="#0066DA"/>
<path d="M43.65 52.9998L57.4 76.7998C58.75 75.9998 59.9 74.8998 60.7 73.4998L86.1001 29.4998C86.8853 28.13 87.299 26.5787 87.3001 24.9998L59.8001 24.9998L43.65 52.9998Z" fill="#00AC47"/>
<path d="M13.75 1.2C12.4 2 11.25 3.1 10.45 4.5L8.84996 7.25L1.19996 20.5C0.399955 21.9 -4.94556e-05 23.45 -4.95911e-05 25L27.502 25L21.65 13.5L13.75 1.2Z" fill="#EA4335"/>
<path d="M43.6501 53L29.9001 76.8C31.2501 77.6 32.8001 78 34.4001 78L52.9001 78C54.5001 78 56.0501 77.55 57.4001 76.8L43.6501 53Z" fill="#00832D"/>
<path d="M27.5 25L59.8 25L73.5501 1.2C72.2001 0.399997 70.6501 -2.53526e-07 69.0501 -3.93402e-07L18.25 -4.83448e-06C16.65 -4.97436e-06 15.1 0.449992 13.75 1.19999L27.5 25Z" fill="#2684FC"/>
<path d="M13.9001 51.4998L26.6001 73.4998C27.4001 74.8998 28.5501 75.9998 29.9001 76.7998L43.6501 52.9998L27.5002 24.9998L0.0501525 24.9998C0.0501524 26.5498 0.450149 28.0998 1.25015 29.4998L13.9001 51.4998Z" fill="#FFBA00"/>
</g>
<defs>
<clipPath id="clip0_39_2">
<rect width="87.3" height="78" fill="white" transform="translate(87.3 78) rotate(-180)"/>
</clipPath>
</defs>
</svg>
